<?xml version="1.0" encoding="iso-8859-1"?>
<!-- Generator: Adobe Illustrator 18.0.0, SVG Export Plug-In . SVG Version: 6.00 Build 0)  -->
<!DOCTYPE svg PUBLIC "-//W3C//DTD SVG 1.1//EN" "http://www.w3.org/Graphics/SVG/1.1/DTD/svg11.dtd">
<svg version="1.1" id="Capa_1" xmlns="http://www.w3.org/2000/svg" xmlns:xlink="http://www.w3.org/1999/xlink" x="0px" y="0px"
	 viewBox="0 0 209.155 209.155" style="enable-background:new 0 0 209.155 209.155;" xml:space="preserve">
<path d="M206.958,143.47c-2.93-2.927-7.678-2.929-10.607,0l-29.95,29.949l-14.01-14.009l21.137-21.137
	c2.929-2.93,2.929-7.678,0-10.607c-2.93-2.928-7.678-2.928-10.607,0l-21.137,21.137L97.37,104.391
	c16.019-21.202,14.385-51.59-4.929-70.904C82.214,23.26,68.616,17.628,54.152,17.628c-14.464,0-28.063,5.632-38.29,15.859
	C5.633,43.716,0,57.316,0,71.78c0,14.464,5.633,28.063,15.861,38.289c10.226,10.228,23.825,15.86,38.289,15.861
	c0.001,0,0.003,0,0.004,0c11.93,0,23.267-3.843,32.615-10.927l49.686,49.686c0.009,0.008,0.016,0.017,0.023,0.025
	c0.008,0.009,0.018,0.015,0.025,0.023l24.593,24.592c1.465,1.464,3.384,2.196,5.304,2.196c1.919,0,3.839-0.732,5.304-2.196
	l35.254-35.253C209.887,151.148,209.887,146.4,206.958,143.47z M54.151,110.931c-10.458,0-20.29-4.073-27.684-11.468
	C19.072,92.069,15,82.237,15,71.78c0-10.458,4.073-20.291,11.468-27.686c7.394-7.395,17.226-11.467,27.684-11.467
	c10.457,0,20.288,4.071,27.682,11.465C97.1,59.359,97.1,84.198,81.835,99.463c-7.396,7.396-17.225,11.469-27.681,11.468
	C54.154,110.931,54.152,110.931,54.151,110.931z"/>
<g>
</g>
<g>
</g>
<g>
</g>
<g>
</g>
<g>
</g>
<g>
</g>
<g>
</g>
<g>
</g>
<g>
</g>
<g>
</g>
<g>
</g>
<g>
</g>
<g>
</g>
<g>
</g>
<g>
</g>
</svg>
